<svg xmlns="http://www.w3.org/2000/svg" viewBox="0 0 256 256" role="img" aria-labelledby="title desc">
  <title id="title">Shivam Sports Logo</title>
  <desc id="desc">A clean Shivam Sports badge with tricolor header and SS monogram.</desc>
  <defs>
    <linearGradient id="bg" x1="0%" y1="0%" x2="100%" y2="100%">
      <stop offset="0%" stop-color="#0b2342" />
      <stop offset="100%" stop-color="#12395d" />
    </linearGradient>
    <linearGradient id="accent" x1="0%" y1="0%" x2="100%" y2="100%">
      <stop offset="0%" stop-color="#ff9933" />
      <stop offset="100%" stop-color="#ff6f1a" />
    </linearGradient>
  </defs>

  <rect x="12" y="12" width="232" height="232" rx="40" fill="url(#bg)" />
  <rect x="12" y="12" width="232" height="14" rx="14" fill="#ff9933" />
  <rect x="12" y="26" width="232" height="10" fill="#ffffff" />
  <rect x="12" y="36" width="232" height="14" rx="14" fill="#138808" />

  <circle cx="128" cy="106" r="52" fill="#ffffff" opacity="0.12" />
  <circle cx="128" cy="106" r="44" fill="none" stroke="#ffffff" stroke-opacity="0.18" stroke-width="4" />

  <path d="M86 96c8-17 22-26 42-26 20 0 33 8 42 22l-17 10c-5-8-13-12-24-12-10 0-18 4-23 12-4 5-4 10 0 13 3 3 9 5 17 6l10 2c14 2 23 8 27 18 4 12 0 22-10 31-10 9-24 13-41 13-26 0-44-11-54-31l19-10c7 12 19 18 35 18 11 0 19-2 25-7 5-4 7-8 6-13-1-5-6-8-15-10l-16-3c-13-2-22-7-27-14-7-9-7-19-2-29z" fill="#ffffff" />
  <path d="M88 86h80" stroke="url(#accent)" stroke-width="7" stroke-linecap="round" opacity="0.85" />

  <rect x="52" y="178" width="152" height="40" rx="20" fill="url(#accent)" />
  <text x="128" y="205" text-anchor="middle" font-family="Arial, Helvetica, sans-serif" font-size="22" font-weight="700" fill="#ffffff" letter-spacing="2">
    SHIVAM SPORTS
  </text>
</svg>
